<svg width="32" height="32" viewBox="0 0 32 32" fill="none" xmlns="http://www.w3.org/2000/svg">
<rect width="32" height="32" fill="white"/>
<path d="M12.7952 4.23108L2.80884 12.0652V14.866L12.9723 7.01835H13.5309L25.3837 16.5438H28.9532V16.192L13.7216 4.23108H12.7952Z" fill="#EEC60B"/>
<path d="M17.196 17.4232C17.9233 17.4233 18.6343 17.6373 19.239 18.0385C19.8439 18.4398 20.3161 19.0106 20.5945 19.6781C20.8729 20.3456 20.9454 21.0808 20.8035 21.7894C20.6615 22.498 20.311 23.1487 19.7966 23.6595C19.2823 24.1703 18.6272 24.5185 17.9138 24.6595C17.2003 24.8005 16.46 24.728 15.7878 24.4515C15.1158 24.175 14.5416 23.7065 14.1375 23.1058C13.7333 22.5051 13.5174 21.799 13.5173 21.0765H15.2615C15.2615 21.3709 15.3488 21.6589 15.5134 21.9037C15.6781 22.1484 15.9125 22.3389 16.1863 22.4515C16.4601 22.5642 16.7618 22.5939 17.0525 22.5365C17.3429 22.4791 17.6096 22.3371 17.8191 22.1293C18.0287 21.9211 18.1714 21.6553 18.2292 21.3666C18.287 21.078 18.2576 20.7791 18.1443 20.5072C18.0309 20.2353 17.8389 20.0028 17.5925 19.8392C17.4696 19.7576 17.336 19.694 17.196 19.6517V17.4232Z" fill="#EEC60B"/>
<path d="M16.174 19.6558H17.1957L18.9805 17.8833L20.3156 16.5573V14.3248H14.6753L11.8469 16.5573H17.114V17.085L16.174 18.0186V19.6558Z" fill="#EEC60B"/>
<path d="M9.02135 14.5007L16.0513 9.04798L15.084 8.26322L14.144 7.51904L2.80884 16.7468V27.7606H28.9532V25.7039H4.68894V17.8563L5.81973 16.9362V24.7703H9.02135V20.1023L15.0431 24.9598H18.2448V24.5944L11.5418 19.2634L14.8524 16.5574H11.8415L9.02135 18.8034V14.5007Z" fill="#21201C"/>
<path d="M20.0895 19.6422L19.6821 19.1053H19.5904V19.6422H19.3223V18.3827H19.5904V18.8858H19.6443L20.0654 18.3827H20.3992L19.9044 18.967L20.4221 19.6422H20.0895Z" fill="#21201C"/>
<path d="M20.8185 19.6422V18.3827H21.3189C21.4151 18.3827 21.497 18.4009 21.5647 18.4374C21.6324 18.4735 21.684 18.5237 21.7196 18.5881C21.7555 18.6521 21.7734 18.7259 21.7734 18.8095C21.7734 18.8932 21.7553 18.967 21.7189 19.0309C21.6826 19.0949 21.63 19.1447 21.561 19.1804C21.4925 19.216 21.4095 19.2339 21.3121 19.2339H20.9931V19.0205H21.2687C21.3203 19.0205 21.3629 19.0116 21.3963 18.994C21.4301 18.976 21.4553 18.9512 21.4718 18.9196C21.4888 18.8876 21.4972 18.8509 21.4972 18.8095C21.4972 18.7677 21.4888 18.7312 21.4718 18.7C21.4553 18.6685 21.4301 18.6441 21.3963 18.6269C21.3624 18.6092 21.3195 18.6004 21.2675 18.6004H21.0867V19.6422H20.8185Z" fill="#21201C"/>
<path d="M22.2092 19.6422V18.3827H23.0638V18.6023H22.4773V18.9024H23.0198V19.1219H22.4773V19.4227H23.0662V19.6422H22.2092Z" fill="#21201C"/>
<path d="M23.7571 19.6422H23.4698L23.9076 18.3827H24.2532L24.6904 19.6422H24.403L24.0853 18.6705H24.0754L23.7571 19.6422ZM23.7392 19.1472H24.4179V19.355H23.7392V19.1472Z" fill="#21201C"/>
<path d="M24.9013 18.6023V18.3827H25.9429V18.6023H25.5547V19.6422H25.2896V18.6023H24.9013Z" fill="#21201C"/>
<path d="M26.3761 18.3827H26.6436V19.1748H26.6541L27.2022 18.3827H27.4369V19.6422H27.1687V18.8495H27.1594L26.6083 19.6422H26.3761V18.3827Z" fill="#21201C"/>
<path d="M27.92 19.6422V18.3827H28.4278C28.5211 18.3827 28.5989 18.3964 28.6613 18.4239C28.7236 18.4514 28.7705 18.4895 28.8018 18.5383C28.8332 18.5867 28.8489 18.6424 28.8489 18.7056C28.8489 18.7548 28.839 18.798 28.8192 18.8353C28.7994 18.8722 28.7721 18.9026 28.7374 18.9264C28.7032 18.9497 28.6639 18.9663 28.6198 18.9762V18.9885C28.6681 18.9905 28.7133 19.0041 28.7554 19.0291C28.7979 19.0541 28.8324 19.0891 28.8588 19.1342C28.8852 19.1789 28.8984 19.2322 28.8984 19.2941C28.8984 19.361 28.8817 19.4206 28.8483 19.4731C28.8152 19.5252 28.7663 19.5664 28.7015 19.5967C28.6367 19.6271 28.5568 19.6422 28.4619 19.6422H27.92ZM28.1881 19.4245H28.4067C28.4815 19.4245 28.536 19.4104 28.5702 19.3821C28.6045 19.3534 28.6216 19.3153 28.6216 19.2677C28.6216 19.2329 28.6132 19.2021 28.5962 19.1755C28.5793 19.1488 28.5552 19.1279 28.5238 19.1127C28.4928 19.0975 28.4559 19.09 28.4129 19.09H28.1881V19.4245ZM28.1881 18.9098H28.3869C28.4237 18.9098 28.4563 18.9034 28.4848 18.8907C28.5137 18.8776 28.5364 18.8591 28.5529 18.8353C28.5698 18.8116 28.5783 18.7831 28.5783 18.7499C28.5783 18.7043 28.562 18.6676 28.5294 18.6398C28.4972 18.6119 28.4513 18.5979 28.3919 18.5979H28.1881V18.9098Z" fill="#21201C"/>
<path d="M20.0895 21.5094L19.6821 20.9725H19.5904V21.5094H19.3223V20.2499H19.5904V20.753H19.6443L20.0654 20.2499H20.3992L19.9044 20.8342L20.4221 21.5094H20.0895Z" fill="#21201C"/>
<path d="M20.793 21.5094H20.5056L20.9435 20.2499H21.289L21.7262 21.5094H21.4389L21.1212 20.5377H21.1113L20.793 21.5094ZM20.775 21.0144H21.4537V21.2222H20.775V21.0144Z" fill="#21201C"/>
<path d="M21.9477 20.2499H22.2084V20.6558C22.2084 20.7042 22.2169 20.7431 22.2338 20.7727C22.2507 20.8018 22.2769 20.8229 22.3125 20.836C22.3484 20.8487 22.3944 20.8551 22.4506 20.8551C22.4704 20.8551 22.4937 20.8545 22.5205 20.8532C22.5474 20.8516 22.575 20.8493 22.6035 20.8465C22.6324 20.8436 22.6597 20.8401 22.6853 20.836C22.7108 20.8319 22.7321 20.8272 22.749 20.8219V21.0322C22.7317 21.0379 22.71 21.0431 22.684 21.0476C22.6584 21.0517 22.6314 21.0554 22.6029 21.0586C22.5744 21.0615 22.5467 21.0638 22.5199 21.0654C22.4931 21.067 22.47 21.0679 22.4506 21.0679C22.3486 21.0679 22.2598 21.0535 22.1843 21.0248C22.1087 20.9957 22.0503 20.9508 22.009 20.8901C21.9681 20.8294 21.9477 20.7513 21.9477 20.6558V20.2499ZM22.7026 20.2499H22.9645V21.5094H22.7026V20.2499Z" fill="#21201C"/>
<path d="M23.2472 21.5094V20.2499H24.1018V20.4694H23.5153V20.7696H24.0578V20.9891H23.5153V21.2899H24.1043V21.5094H23.2472Z" fill="#21201C"/>
<path d="M25.4514 20.6909H25.1802C25.1752 20.656 25.1651 20.625 25.1498 20.598C25.1346 20.5705 25.115 20.5471 25.091 20.5279C25.0671 20.5086 25.0394 20.4938 25.008 20.4836C24.9771 20.4733 24.9434 20.4682 24.9071 20.4682C24.8414 20.4682 24.7843 20.4844 24.7355 20.5168C24.6868 20.5488 24.6491 20.5955 24.6222 20.657C24.5954 20.7181 24.582 20.7923 24.582 20.8797C24.582 20.9695 24.5954 21.0449 24.6222 21.106C24.6495 21.1671 24.6874 21.2132 24.7362 21.2444C24.7849 21.2755 24.8412 21.2911 24.9052 21.2911C24.9411 21.2911 24.9744 21.2864 25.0049 21.277C25.0359 21.2675 25.0633 21.2538 25.0873 21.2358C25.1112 21.2173 25.1311 21.195 25.1467 21.1687C25.1628 21.1425 25.174 21.1126 25.1802 21.0789L25.4514 21.0802C25.4444 21.138 25.4269 21.1937 25.3988 21.2474C25.3711 21.3007 25.3338 21.3485 25.2867 21.3907C25.24 21.4326 25.1843 21.4658 25.1195 21.4904C25.0551 21.5146 24.9822 21.5267 24.9009 21.5267C24.7878 21.5267 24.6866 21.5012 24.5974 21.4504C24.5087 21.3996 24.4385 21.326 24.3869 21.2296C24.3357 21.1333 24.3101 21.0166 24.3101 20.8797C24.3101 20.7423 24.3361 20.6255 24.3881 20.5291C24.4402 20.4328 24.5107 20.3594 24.5999 20.3089C24.6891 20.2581 24.7894 20.2327 24.9009 20.2327C24.9744 20.2327 25.0425 20.2429 25.1052 20.2634C25.1684 20.2839 25.2244 20.3138 25.2731 20.3532C25.3218 20.3922 25.3614 20.4399 25.392 20.4965C25.4229 20.5531 25.4428 20.6179 25.4514 20.6909Z" fill="#21201C"/>
<path d="M25.6128 20.4694V20.2499H26.6545V20.4694H26.2662V21.5094H26.0011V20.4694H25.6128Z" fill="#21201C"/>
<path d="M26.8434 21.5094V20.2499H27.3512C27.4445 20.2499 27.5224 20.2636 27.5847 20.2911C27.647 20.3186 27.6939 20.3567 27.7253 20.4055C27.7566 20.4539 27.7723 20.5096 27.7723 20.5728C27.7723 20.622 27.7624 20.6652 27.7426 20.7025C27.7228 20.7394 27.6955 20.7698 27.6609 20.7936C27.6266 20.8169 27.5874 20.8335 27.5432 20.8434V20.8557C27.5915 20.8577 27.6367 20.8713 27.6788 20.8963C27.7213 20.9213 27.7558 20.9563 27.7822 21.0014C27.8087 21.0461 27.8219 21.0994 27.8219 21.1613C27.8219 21.2282 27.8052 21.2878 27.7717 21.3403C27.7387 21.3924 27.6898 21.4336 27.6249 21.4639C27.5601 21.4943 27.4802 21.5094 27.3853 21.5094H26.8434ZM27.1116 21.2917H27.3302C27.4049 21.2917 27.4594 21.2776 27.4937 21.2493C27.5279 21.2206 27.5451 21.1825 27.5451 21.1349C27.5451 21.1 27.5366 21.0693 27.5197 21.0426C27.5027 21.016 27.4786 20.9951 27.4472 20.9799C27.4163 20.9647 27.3793 20.9572 27.3364 20.9572H27.1116V21.2917ZM27.1116 20.777H27.3104C27.3471 20.777 27.3797 20.7706 27.4082 20.7579C27.4371 20.7448 27.4598 20.7263 27.4763 20.7025C27.4932 20.6788 27.5017 20.6503 27.5017 20.6171C27.5017 20.5715 27.4854 20.5348 27.4528 20.507C27.4206 20.4791 27.3748 20.4651 27.3153 20.4651H27.1116V20.777Z" fill="#21201C"/>
<path d="M29.1618 20.8797C29.1618 21.017 29.1356 21.1339 29.0832 21.2302C29.0312 21.3266 28.9601 21.4002 28.8701 21.451C28.7806 21.5015 28.6798 21.5267 28.5679 21.5267C28.4552 21.5267 28.3541 21.5012 28.2645 21.4504C28.1749 21.3996 28.1041 21.326 28.0521 21.2296C28.0001 21.1333 27.9741 21.0166 27.9741 20.8797C27.9741 20.7423 28.0001 20.6255 28.0521 20.5291C28.1041 20.4328 28.1749 20.3594 28.2645 20.3089C28.3541 20.2581 28.4552 20.2327 28.5679 20.2327C28.6798 20.2327 28.7806 20.2581 28.8701 20.3089C28.9601 20.3594 29.0312 20.4328 29.0832 20.5291C29.1356 20.6255 29.1618 20.7423 29.1618 20.8797ZM28.89 20.8797C28.89 20.7907 28.8765 20.7157 28.8497 20.6546C28.8233 20.5935 28.7859 20.5471 28.7376 20.5156C28.6893 20.484 28.6328 20.4682 28.5679 20.4682C28.5031 20.4682 28.4466 20.484 28.3983 20.5156C28.35 20.5471 28.3124 20.5935 28.2856 20.6546C28.2591 20.7157 28.2459 20.7907 28.2459 20.8797C28.2459 20.9686 28.2591 21.0437 28.2856 21.1048C28.3124 21.1659 28.35 21.2122 28.3983 21.2438C28.4466 21.2753 28.5031 21.2911 28.5679 21.2911C28.6328 21.2911 28.6893 21.2753 28.7376 21.2438C28.7859 21.2122 28.8233 21.1659 28.8497 21.1048C28.8765 21.0437 28.89 20.9686 28.89 20.8797Z" fill="#21201C"/>
<path d="M20.0895 23.3226L19.6821 22.7857H19.5904V23.3226H19.3223V22.063H19.5904V22.5661H19.6443L20.0654 22.063H20.3992L19.9044 22.6473L20.4221 23.3226H20.0895Z" fill="#21201C"/>
<path d="M21.7555 22.6928C21.7555 22.8302 21.7293 22.947 21.6769 23.0434C21.6248 23.1397 21.5538 23.2133 21.4638 23.2642C21.3742 23.3146 21.2735 23.3398 21.1616 23.3398C21.0489 23.3398 20.9478 23.3144 20.8582 23.2636C20.7686 23.2127 20.6978 23.1391 20.6458 23.0428C20.5938 22.9464 20.5677 22.8298 20.5677 22.6928C20.5677 22.5555 20.5938 22.4386 20.6458 22.3423C20.6978 22.2459 20.7686 22.1725 20.8582 22.1221C20.9478 22.0712 21.0489 22.0458 21.1616 22.0458C21.2735 22.0458 21.3742 22.0712 21.4638 22.1221C21.5538 22.1725 21.6248 22.2459 21.6769 22.3423C21.7293 22.4386 21.7555 22.5555 21.7555 22.6928ZM21.4836 22.6928C21.4836 22.6038 21.4702 22.5288 21.4434 22.4677C21.417 22.4066 21.3796 22.3603 21.3313 22.3287C21.283 22.2972 21.2264 22.2814 21.1616 22.2814C21.0968 22.2814 21.0403 22.2972 20.9919 22.3287C20.9436 22.3603 20.9061 22.4066 20.8792 22.4677C20.8528 22.5288 20.8396 22.6038 20.8396 22.6928C20.8396 22.7818 20.8528 22.8568 20.8792 22.9179C20.9061 22.979 20.9436 23.0253 20.9919 23.0569C21.0403 23.0885 21.0968 23.1043 21.1616 23.1043C21.2264 23.1043 21.283 23.0885 21.3313 23.0569C21.3796 23.0253 21.417 22.979 21.4434 22.9179C21.4702 22.8568 21.4836 22.7818 21.4836 22.6928Z" fill="#21201C"/>
<path d="M22.0588 22.063H22.3895L22.7387 22.9093H22.7536L23.1029 22.063H23.4335V23.3226H23.1735V22.5028H23.1629L22.8347 23.3164H22.6576L22.3294 22.4997H22.3189V23.3226H22.0588V22.063Z" fill="#21201C"/>
<path d="M24.2607 22.1983H24.5443C24.6459 22.1983 24.7359 22.2197 24.8143 22.2623C24.8932 22.3049 24.9549 22.365 24.9995 22.4425C25.0445 22.5196 25.067 22.6102 25.067 22.7143C25.067 22.8152 25.0445 22.9032 24.9995 22.9782C24.9549 23.0532 24.8932 23.1116 24.8143 23.1535C24.7359 23.1949 24.6459 23.2156 24.5443 23.2156H24.2607C24.1587 23.2156 24.0683 23.1951 23.9895 23.1541C23.9106 23.1127 23.8487 23.0544 23.8037 22.9794C23.7591 22.9044 23.7368 22.8158 23.7368 22.7137C23.7368 22.6096 23.7593 22.519 23.8043 22.4419C23.8497 22.3644 23.9119 22.3045 23.9907 22.2623C24.0696 22.2197 24.1596 22.1983 24.2607 22.1983ZM24.2607 22.421C24.2062 22.421 24.1581 22.4318 24.1164 22.4536C24.0751 22.4749 24.0429 22.5073 24.0198 22.5507C23.9967 22.5942 23.9851 22.6485 23.9851 22.7137C23.9851 22.776 23.9969 22.8279 24.0204 22.8693C24.0444 22.9107 24.077 22.9417 24.1183 22.9622C24.1596 22.9827 24.207 22.9929 24.2607 22.9929H24.5462C24.6003 22.9929 24.6476 22.9825 24.688 22.9616C24.7289 22.9407 24.7605 22.9095 24.7828 22.8681C24.8055 22.8267 24.8168 22.7754 24.8168 22.7143C24.8168 22.6491 24.8055 22.5948 24.7828 22.5514C24.7605 22.5079 24.7289 22.4753 24.688 22.4536C24.6476 22.4318 24.6003 22.421 24.5462 22.421H24.2607ZM24.5295 22.0409V23.3743H24.275V22.0409H24.5295Z" fill="#21201C"/>
<path d="M26.5346 22.6928C26.5346 22.8302 26.5084 22.947 26.456 23.0434C26.404 23.1397 26.333 23.2133 26.243 23.2642C26.1534 23.3146 26.0526 23.3398 25.9408 23.3398C25.8281 23.3398 25.7269 23.3144 25.6373 23.2636C25.5477 23.2127 25.4769 23.1391 25.4249 23.0428C25.3729 22.9464 25.3469 22.8298 25.3469 22.6928C25.3469 22.5555 25.3729 22.4386 25.4249 22.3423C25.4769 22.2459 25.5477 22.1725 25.6373 22.1221C25.7269 22.0712 25.8281 22.0458 25.9408 22.0458C26.0526 22.0458 26.1534 22.0712 26.243 22.1221C26.333 22.1725 26.404 22.2459 26.456 22.3423C26.5084 22.4386 26.5346 22.5555 26.5346 22.6928ZM26.2628 22.6928C26.2628 22.6038 26.2494 22.5288 26.2225 22.4677C26.1961 22.4066 26.1588 22.3603 26.1104 22.3287C26.0621 22.2972 26.0056 22.2814 25.9408 22.2814C25.876 22.2814 25.8194 22.2972 25.7711 22.3287C25.7228 22.3603 25.6852 22.4066 25.6584 22.4677C25.632 22.5288 25.6187 22.6038 25.6187 22.6928C25.6187 22.7818 25.632 22.8568 25.6584 22.9179C25.6852 22.979 25.7228 23.0253 25.7711 23.0569C25.8194 23.0885 25.876 23.1043 25.9408 23.1043C26.0056 23.1043 26.0621 23.0885 26.1104 23.0569C26.1588 23.0253 26.1961 22.979 26.2225 22.9179C26.2494 22.8568 26.2628 22.7818 26.2628 22.6928Z" fill="#21201C"/>
<path d="M26.8379 23.3226V22.063H27.3383C27.4345 22.063 27.5164 22.0813 27.5841 22.1178C27.6518 22.1539 27.7034 22.2041 27.7389 22.2685C27.7749 22.3324 27.7928 22.4062 27.7928 22.4899C27.7928 22.5735 27.7747 22.6473 27.7383 22.7113C27.702 22.7752 27.6494 22.825 27.5804 22.8607C27.5119 22.8964 27.4289 22.9142 27.3315 22.9142H27.0125V22.7008H27.2881C27.3397 22.7008 27.3822 22.692 27.4157 22.6744C27.4495 22.6563 27.4747 22.6315 27.4912 22.5999C27.5082 22.568 27.5166 22.5313 27.5166 22.4899C27.5166 22.448 27.5082 22.4115 27.4912 22.3804C27.4747 22.3488 27.4495 22.3244 27.4157 22.3072C27.3818 22.2896 27.3389 22.2808 27.2869 22.2808H27.1061V23.3226H26.8379Z" fill="#21201C"/>
<path d="M28.0233 22.2826V22.063H29.0649V22.2826H28.6767V23.3226H28.4116V22.2826H28.0233Z" fill="#21201C"/>
<path d="M5.92544 26.6506H5.77286C5.77008 26.6309 5.76439 26.6135 5.7558 26.5983C5.7472 26.5829 5.73617 26.5697 5.7227 26.5589C5.70923 26.548 5.69367 26.5397 5.67603 26.534C5.65861 26.5282 5.63968 26.5253 5.61925 26.5253C5.58232 26.5253 5.55016 26.5344 5.52276 26.5527C5.49535 26.5706 5.4741 26.5969 5.45901 26.6315C5.44392 26.6659 5.43637 26.7076 5.43637 26.7568C5.43637 26.8073 5.44392 26.8497 5.45901 26.8841C5.47434 26.9184 5.4957 26.9444 5.5231 26.9619C5.55051 26.9794 5.58221 26.9882 5.6182 26.9882C5.63841 26.9882 5.6571 26.9855 5.67428 26.9802C5.6917 26.9749 5.70714 26.9672 5.72061 26.9571C5.73408 26.9467 5.74523 26.9341 5.75405 26.9194C5.76311 26.9046 5.76938 26.8878 5.77286 26.8688L5.92544 26.8695C5.92149 26.9021 5.91162 26.9334 5.89583 26.9636C5.88027 26.9936 5.85925 27.0205 5.83278 27.0442C5.80654 27.0678 5.77519 27.0864 5.73873 27.1003C5.7025 27.1139 5.66151 27.1207 5.61576 27.1207C5.55213 27.1207 5.49524 27.1064 5.44508 27.0778C5.39515 27.0492 5.35567 27.0078 5.32664 26.9536C5.29785 26.8994 5.28345 26.8338 5.28345 26.7568C5.28345 26.6795 5.29808 26.6138 5.32734 26.5596C5.3566 26.5054 5.39631 26.4641 5.44647 26.4357C5.49663 26.4071 5.55306 26.3928 5.61576 26.3928C5.6571 26.3928 5.69542 26.3986 5.73071 26.4101C5.76625 26.4217 5.79771 26.4385 5.82511 26.4606C5.85252 26.4825 5.87481 26.5094 5.892 26.5412C5.90941 26.5731 5.92056 26.6095 5.92544 26.6506Z" fill="white"/>
<path d="M6.06528 26.526V26.4025H6.65119V26.526H6.43278V27.111H6.28369V26.526H6.06528Z" fill="white"/>
<path d="M6.80653 27.111V26.4025H7.08799C7.1421 26.4025 7.1882 26.4128 7.22628 26.4333C7.26437 26.4536 7.2934 26.4818 7.31337 26.5181C7.33357 26.554 7.34367 26.5955 7.34367 26.6426C7.34367 26.6896 7.33345 26.7312 7.31302 26.7671C7.29258 26.8031 7.26297 26.8311 7.22419 26.8512C7.18564 26.8713 7.13896 26.8813 7.08416 26.8813H6.90476V26.7613H7.05978C7.0888 26.7613 7.11272 26.7563 7.13153 26.7464C7.15058 26.7362 7.16474 26.7223 7.17403 26.7045C7.18355 26.6865 7.18831 26.6659 7.18831 26.6426C7.18831 26.6191 7.18355 26.5985 7.17403 26.581C7.16474 26.5633 7.15058 26.5495 7.13153 26.5399C7.11249 26.5299 7.08834 26.525 7.05908 26.525H6.95736V27.111H6.80653Z" fill="white"/>
<path d="M8.15607 26.7568C8.15607 26.834 8.14133 26.8998 8.11183 26.954C8.08257 27.0081 8.04263 27.0495 7.992 27.0781C7.94161 27.1065 7.88495 27.1207 7.82202 27.1207C7.75862 27.1207 7.70172 27.1064 7.65133 27.0778C7.60094 27.0492 7.56111 27.0078 7.53185 26.9536C7.50259 26.8994 7.48796 26.8338 7.48796 26.7568C7.48796 26.6795 7.50259 26.6138 7.53185 26.5596C7.56111 26.5054 7.60094 26.4641 7.65133 26.4357C7.70172 26.4071 7.75862 26.3928 7.82202 26.3928C7.88495 26.3928 7.94161 26.4071 7.992 26.4357C8.04263 26.4641 8.08257 26.5054 8.11183 26.5596C8.14133 26.6138 8.15607 26.6795 8.15607 26.7568ZM8.00315 26.7568C8.00315 26.7067 7.9956 26.6645 7.98051 26.6301C7.96565 26.5958 7.94463 26.5697 7.91746 26.552C7.89029 26.5342 7.85847 26.5253 7.82202 26.5253C7.78556 26.5253 7.75374 26.5342 7.72657 26.552C7.6994 26.5697 7.67827 26.5958 7.66317 26.6301C7.64831 26.6645 7.64088 26.7067 7.64088 26.7568C7.64088 26.8068 7.64831 26.849 7.66317 26.8834C7.67827 26.9177 7.6994 26.9438 7.72657 26.9616C7.75374 26.9793 7.78556 26.9882 7.82202 26.9882C7.85847 26.9882 7.89029 26.9793 7.91746 26.9616C7.94463 26.9438 7.96565 26.9177 7.98051 26.8834C7.9956 26.849 8.00315 26.8068 8.00315 26.7568Z" fill="white"/>
<path d="M8.32666 26.4025H8.47714V26.8481H8.48306L8.79134 26.4025H8.92336V27.111H8.77253V26.6651H8.76731L8.45729 27.111H8.32666V26.4025Z" fill="white"/>
<path d="M9.07967 26.526V26.4025H9.66557V26.526H9.44716V27.111H9.29808V26.526H9.07967Z" fill="white"/>
<path d="M9.82092 27.111V26.4025H10.3016V26.526H9.97175V26.6948H10.2769V26.8183H9.97175V26.9875H10.303V27.111H9.82092Z" fill="white"/>
<path d="M10.4417 27.111V26.9906L10.4619 26.9889C10.4879 26.9868 10.509 26.977 10.525 26.9595C10.541 26.9417 10.553 26.9135 10.5609 26.8747C10.569 26.8358 10.5742 26.7834 10.5765 26.7177L10.5884 26.4025H11.0726V27.111H10.9259V26.5226H10.7284L10.7173 26.7692C10.7136 26.8486 10.704 26.9134 10.6887 26.9636C10.6736 27.0139 10.6495 27.051 10.6163 27.075C10.5833 27.099 10.5381 27.111 10.4807 27.111H10.4417Z" fill="white"/>
<path d="M11.3551 26.6644H11.5251C11.5817 26.6644 11.6305 26.6735 11.6714 26.6917C11.7125 26.7097 11.7442 26.7352 11.7665 26.7682C11.7887 26.8012 11.7998 26.84 11.7995 26.8848C11.7998 26.9293 11.7887 26.9686 11.7665 27.0027C11.7442 27.0366 11.7125 27.0632 11.6714 27.0823C11.6305 27.1014 11.5817 27.111 11.5251 27.111H11.2586V26.4025H11.4091V26.9906H11.5251C11.5522 26.9906 11.5751 26.9858 11.5937 26.9761C11.6123 26.9662 11.6263 26.9531 11.6358 26.937C11.6456 26.9206 11.6503 26.9028 11.6501 26.8834C11.6503 26.8552 11.6397 26.8315 11.6181 26.8121C11.5967 26.7925 11.5657 26.7827 11.5251 26.7827H11.3551V26.6644Z" fill="white"/>
<path d="M11.9785 27.111V26.4025H12.1293V26.6948H12.4355V26.4025H12.586V27.111H12.4355V26.8183H12.1293V27.111H11.9785Z" fill="white"/>
<path d="M13.4248 26.7568C13.4248 26.834 13.41 26.8998 13.3805 26.954C13.3513 27.0081 13.3113 27.0495 13.2607 27.0781C13.2103 27.1065 13.1537 27.1207 13.0907 27.1207C13.0273 27.1207 12.9704 27.1064 12.92 27.0778C12.8696 27.0492 12.8298 27.0078 12.8006 26.9536C12.7713 26.8994 12.7567 26.8338 12.7567 26.7568C12.7567 26.6795 12.7713 26.6138 12.8006 26.5596C12.8298 26.5054 12.8696 26.4641 12.92 26.4357C12.9704 26.4071 13.0273 26.3928 13.0907 26.3928C13.1537 26.3928 13.2103 26.4071 13.2607 26.4357C13.3113 26.4641 13.3513 26.5054 13.3805 26.5596C13.41 26.6138 13.4248 26.6795 13.4248 26.7568ZM13.2719 26.7568C13.2719 26.7067 13.2643 26.6645 13.2492 26.6301C13.2344 26.5958 13.2133 26.5697 13.1862 26.552C13.159 26.5342 13.1272 26.5253 13.0907 26.5253C13.0543 26.5253 13.0224 26.5342 12.9953 26.552C12.9681 26.5697 12.947 26.5958 12.9319 26.6301C12.917 26.6645 12.9096 26.7067 12.9096 26.7568C12.9096 26.8068 12.917 26.849 12.9319 26.8834C12.947 26.9177 12.9681 26.9438 12.9953 26.9616C13.0224 26.9793 13.0543 26.9882 13.0907 26.9882C13.1272 26.9882 13.159 26.9793 13.1862 26.9616C13.2133 26.9438 13.2344 26.9177 13.2492 26.8834C13.2643 26.849 13.2719 26.8068 13.2719 26.7568Z" fill="white"/>
<path d="M13.9259 26.6983V26.8152H13.6006V26.6983H13.9259Z" fill="white"/>
<path d="M14.7696 26.7568C14.7696 26.834 14.7549 26.8998 14.7254 26.954C14.6961 27.0081 14.6562 27.0495 14.6055 27.0781C14.5551 27.1065 14.4985 27.1207 14.4355 27.1207C14.3721 27.1207 14.3153 27.1064 14.2649 27.0778C14.2145 27.0492 14.1746 27.0078 14.1454 26.9536C14.1161 26.8994 14.1015 26.8338 14.1015 26.7568C14.1015 26.6795 14.1161 26.6138 14.1454 26.5596C14.1746 26.5054 14.2145 26.4641 14.2649 26.4357C14.3153 26.4071 14.3721 26.3928 14.4355 26.3928C14.4985 26.3928 14.5551 26.4071 14.6055 26.4357C14.6562 26.4641 14.6961 26.5054 14.7254 26.5596C14.7549 26.6138 14.7696 26.6795 14.7696 26.7568ZM14.6167 26.7568C14.6167 26.7067 14.6091 26.6645 14.594 26.6301C14.5792 26.5958 14.5582 26.5697 14.531 26.552C14.5038 26.5342 14.472 26.5253 14.4355 26.5253C14.3991 26.5253 14.3673 26.5342 14.3401 26.552C14.3129 26.5697 14.2918 26.5958 14.2767 26.6301C14.2618 26.6645 14.2544 26.7067 14.2544 26.7568C14.2544 26.8068 14.2618 26.849 14.2767 26.8834C14.2918 26.9177 14.3129 26.9438 14.3401 26.9616C14.3673 26.9793 14.3991 26.9882 14.4355 26.9882C14.472 26.9882 14.5038 26.9793 14.531 26.9616C14.5582 26.9438 14.5792 26.9177 14.594 26.8834C14.6091 26.849 14.6167 26.8068 14.6167 26.7568Z" fill="white"/>
<path d="M14.8804 26.526V26.4025H15.4664V26.526H15.2479V27.111H15.0989V26.526H14.8804Z" fill="white"/>
<path d="M15.583 27.2819V26.9917H15.6315C15.6479 26.9799 15.663 26.9633 15.6767 26.9418C15.6904 26.9202 15.7022 26.8903 15.7119 26.8522C15.7217 26.814 15.7286 26.7639 15.7328 26.7021L15.753 26.4025H16.225V26.9917H16.3031V27.2812H16.1581V27.111H15.7279V27.2819H15.583ZM15.8056 26.9917H16.0801V26.526H15.8889L15.8777 26.7021C15.8747 26.7489 15.8697 26.7904 15.8628 26.8266C15.856 26.8629 15.8478 26.8946 15.838 26.9218C15.8285 26.9488 15.8177 26.9721 15.8056 26.9917Z" fill="white"/>
<path d="M16.4536 27.111V26.4025H16.9343V26.526H16.6044V26.6948H16.9096V26.8183H16.6044V26.9875H16.9357V27.111H16.4536Z" fill="white"/>
<path d="M17.0744 27.111V26.9906L17.0946 26.9889C17.1206 26.9868 17.1417 26.977 17.1577 26.9595C17.1737 26.9417 17.1857 26.9135 17.1936 26.8747C17.2017 26.8358 17.2069 26.7834 17.2092 26.7177L17.2211 26.4025H17.7053V27.111H17.5586V26.5226H17.3611L17.35 26.7692C17.3462 26.8486 17.3367 26.9134 17.3214 26.9636C17.3063 27.0139 17.2821 27.051 17.2489 27.075C17.216 27.099 17.1708 27.111 17.1134 27.111H17.0744Z" fill="white"/>
<path d="M18.5441 26.7568C18.5441 26.834 18.5293 26.8998 18.4998 26.954C18.4706 27.0081 18.4306 27.0495 18.38 27.0781C18.3296 27.1065 18.2729 27.1207 18.21 27.1207C18.1466 27.1207 18.0897 27.1064 18.0393 27.0778C17.9889 27.0492 17.9491 27.0078 17.9198 26.9536C17.8906 26.8994 17.8759 26.8338 17.8759 26.7568C17.8759 26.6795 17.8906 26.6138 17.9198 26.5596C17.9491 26.5054 17.9889 26.4641 18.0393 26.4357C18.0897 26.4071 18.1466 26.3928 18.21 26.3928C18.2729 26.3928 18.3296 26.4071 18.38 26.4357C18.4306 26.4641 18.4706 26.5054 18.4998 26.5596C18.5293 26.6138 18.5441 26.6795 18.5441 26.7568ZM18.3911 26.7568C18.3911 26.7067 18.3836 26.6645 18.3685 26.6301C18.3536 26.5958 18.3326 26.5697 18.3054 26.552C18.2783 26.5342 18.2465 26.5253 18.21 26.5253C18.1735 26.5253 18.1417 26.5342 18.1145 26.552C18.0874 26.5697 18.0662 26.5958 18.0512 26.6301C18.0363 26.6645 18.0289 26.7067 18.0289 26.7568C18.0289 26.8068 18.0363 26.849 18.0512 26.8834C18.0662 26.9177 18.0874 26.9438 18.1145 26.9616C18.1417 26.9793 18.1735 26.9882 18.21 26.9882C18.2465 26.9882 18.2783 26.9793 18.3054 26.9616C18.3326 26.9438 18.3536 26.9177 18.3685 26.8834C18.3836 26.849 18.3911 26.8068 18.3911 26.7568Z" fill="white"/>
<path d="M18.7435 26.4025H18.8902V26.6308C18.8902 26.658 18.895 26.68 18.9045 26.6966C18.914 26.7129 18.9288 26.7248 18.9487 26.7322C18.9689 26.7393 18.9948 26.7429 19.0264 26.7429C19.0375 26.7429 19.0507 26.7426 19.0658 26.7419C19.0809 26.741 19.0964 26.7397 19.1124 26.7381C19.1287 26.7365 19.144 26.7345 19.1584 26.7322C19.1728 26.7299 19.1848 26.7272 19.1943 26.7242V26.8426C19.1845 26.8458 19.1724 26.8487 19.1577 26.8512C19.1433 26.8535 19.1281 26.8556 19.1121 26.8574C19.0961 26.859 19.0805 26.8603 19.0654 26.8612C19.0503 26.8622 19.0373 26.8626 19.0264 26.8626C18.969 26.8626 18.9191 26.8545 18.8766 26.8384C18.8341 26.822 18.8013 26.7968 18.778 26.7626C18.755 26.7285 18.7435 26.6846 18.7435 26.6308V26.4025ZM19.1682 26.4025H19.3155V27.111H19.1682V26.4025Z" fill="white"/>
<path d="M19.5236 27.111V26.4025H19.6744V26.6948H19.9806V26.4025H20.1311V27.111H19.9806V26.8183H19.6744V27.111H19.5236Z" fill="white"/>
<path d="M20.4372 27.111H20.2756L20.5219 26.4025H20.7163L20.9622 27.111H20.8006L20.6219 26.5644H20.6163L20.4372 27.111ZM20.4271 26.8325H20.8089V26.9495H20.4271V26.8325Z" fill="white"/>
<path d="M21.6545 27.111H21.504V26.525H21.4023C21.3733 26.525 21.3491 26.5292 21.3298 26.5378C21.3108 26.5461 21.2965 26.5583 21.287 26.5744C21.2775 26.5906 21.2727 26.6104 21.2727 26.6339C21.2727 26.6572 21.2775 26.6767 21.287 26.6924C21.2965 26.7081 21.3108 26.7199 21.3298 26.7277C21.3489 26.7355 21.3728 26.7395 21.4016 26.7395H21.5653V26.8599H21.3772C21.3226 26.8599 21.276 26.8509 21.2372 26.8329C21.1984 26.8149 21.1688 26.789 21.1484 26.7554C21.1279 26.7215 21.1177 26.681 21.1177 26.6339C21.1177 26.5871 21.1277 26.5464 21.1477 26.5118C21.1679 26.477 21.197 26.4501 21.2351 26.4312C21.2734 26.4121 21.3195 26.4025 21.3734 26.4025H21.6545V27.111ZM21.2696 26.7886H21.4323L21.2588 27.111H21.0923L21.2696 26.7886Z" fill="white"/>
<path d="M22.5547 27.111L22.3255 26.809H22.274V27.111H22.1232V26.4025H22.274V26.6855H22.3043L22.5412 26.4025H22.7289L22.4506 26.7312L22.7418 27.111H22.5547Z" fill="white"/>
<path d="M23.4919 26.7568C23.4919 26.834 23.4771 26.8998 23.4476 26.954C23.4184 27.0081 23.3784 27.0495 23.3278 27.0781C23.2774 27.1065 23.2207 27.1207 23.1578 27.1207C23.0944 27.1207 23.0375 27.1064 22.9871 27.0778C22.9367 27.0492 22.8969 27.0078 22.8676 26.9536C22.8384 26.8994 22.8237 26.8338 22.8237 26.7568C22.8237 26.6795 22.8384 26.6138 22.8676 26.5596C22.8969 26.5054 22.9367 26.4641 22.9871 26.4357C23.0375 26.4071 23.0944 26.3928 23.1578 26.3928C23.2207 26.3928 23.2774 26.4071 23.3278 26.4357C23.3784 26.4641 23.4184 26.5054 23.4476 26.5596C23.4771 26.6138 23.4919 26.6795 23.4919 26.7568ZM23.3389 26.7568C23.3389 26.7067 23.3314 26.6645 23.3163 26.6301C23.3014 26.5958 23.2804 26.5697 23.2532 26.552C23.2261 26.5342 23.1943 26.5253 23.1578 26.5253C23.1213 26.5253 23.0895 26.5342 23.0624 26.552C23.0352 26.5697 23.014 26.5958 22.999 26.6301C22.9841 26.6645 22.9767 26.7067 22.9767 26.7568C22.9767 26.8068 22.9841 26.849 22.999 26.8834C23.014 26.9177 23.0352 26.9438 23.0624 26.9616C23.0895 26.9793 23.1213 26.9882 23.1578 26.9882C23.1943 26.9882 23.2261 26.9793 23.2532 26.9616C23.2804 26.9438 23.3014 26.9177 23.3163 26.8834C23.3314 26.849 23.3389 26.8068 23.3389 26.7568Z" fill="white"/>
<path d="M23.6624 26.4025H23.8485L24.0449 26.8785H24.0533L24.2497 26.4025H24.4358V27.111H24.2894V26.6499H24.2835L24.0989 27.1076H23.9993L23.8147 26.6481H23.8087V27.111H23.6624V26.4025Z" fill="white"/>
<path d="M25.2253 26.4025V27.111H25.0762V26.5243H24.7878V27.111H24.6387V26.4025H25.2253Z" fill="white"/>
<path d="M25.5508 27.111H25.3891L25.6354 26.4025H25.8298L26.0757 27.111H25.9141L25.7354 26.5644H25.7298L25.5508 27.111ZM25.5407 26.8325H25.9224V26.9495H25.5407V26.8325Z" fill="white"/>
<path d="M26.2204 27.111V26.4025H26.3713V26.6948H26.6774V26.4025H26.8279V27.111H26.6774V26.8183H26.3713V27.111H26.2204Z" fill="white"/>
<path d="M27.0111 26.4025H27.1616V26.8481H27.1675L27.4758 26.4025H27.6078V27.111H27.457V26.6651H27.4518L27.1418 27.111H27.0111V26.4025Z" fill="white"/>
<path d="M28.3389 27.111H28.1884V26.525H28.0867C28.0577 26.525 28.0335 26.5292 28.0143 26.5378C27.9952 26.5461 27.9809 26.5583 27.9714 26.5744C27.9619 26.5906 27.9571 26.6104 27.9571 26.6339C27.9571 26.6572 27.9619 26.6767 27.9714 26.6924C27.9809 26.7081 27.9952 26.7199 28.0143 26.7277C28.0333 26.7355 28.0572 26.7395 28.086 26.7395H28.2497V26.8599H28.0616C28.0071 26.8599 27.9604 26.8509 27.9216 26.8329C27.8828 26.8149 27.8532 26.789 27.8328 26.7554C27.8123 26.7215 27.8021 26.681 27.8021 26.6339C27.8021 26.5871 27.8121 26.5464 27.8321 26.5118C27.8523 26.477 27.8814 26.4501 27.9195 26.4312C27.9578 26.4121 28.0039 26.4025 28.0578 26.4025H28.3389V27.111ZM27.954 26.7886H28.1167L27.9432 27.111H27.7767L27.954 26.7886Z" fill="white"/>
</svg>
