<svg width="900" height="821" viewBox="0 0 900 821" fill="none" xmlns="http://www.w3.org/2000/svg">
<rect width="900" height="820.588" fill="white"/>
<path d="M360.278 79.4117L79.4119 299.746V378.519L365.259 157.804H380.969L714.33 425.706H814.721V415.812L386.334 79.4117H360.278Z" fill="#EEC60B"/>
<path d="M484.043 450.44C504.505 450.44 524.507 456.466 541.521 467.756C558.534 479.046 571.795 495.093 579.625 513.867C587.455 532.642 589.504 553.301 585.512 573.231C581.52 593.162 571.667 611.47 557.198 625.84C542.73 640.209 524.295 649.994 504.227 653.959C484.158 657.923 463.356 655.889 444.452 648.112C425.548 640.336 409.389 627.166 398.021 610.27C386.654 593.373 380.586 573.508 380.586 553.187H471.782V553.188H429.633C429.633 561.466 432.105 569.56 436.736 576.443C441.368 583.327 447.951 588.692 455.652 591.86C463.354 595.029 471.829 595.858 480.005 594.243C488.181 592.628 495.691 588.641 501.586 582.787C507.481 576.933 511.495 569.474 513.121 561.354C514.747 553.234 513.913 544.817 510.723 537.168C507.533 529.519 502.13 522.982 495.199 518.383C491.741 516.088 487.979 514.326 484.043 513.138V450.44Z" fill="#EEC60B"/>
<path d="M455.306 513.231H484.044L534.24 463.38L571.791 426.087V363.297H413.157L333.608 426.087H481.745V440.928L455.306 467.185V513.231Z" fill="#EEC60B"/>
<path d="M254.139 368.244L451.856 214.885L424.651 192.814L398.212 171.884L79.4119 431.414V741.176H814.721V683.334H132.29V462.619L164.093 436.742V657.076H254.139V525.789L423.501 662.404H513.547V652.129L325.026 502.195L418.137 426.087H333.456L254.139 489.257V368.244Z" fill="#21201C"/>
<path d="M565.43 512.851L553.97 497.75H551.392V512.851H543.851V477.426H551.392V491.575H552.907L564.751 477.426H574.139L560.223 493.858L574.783 512.851H565.43Z" fill="#21201C"/>
<path d="M585.933 512.851V477.426H600.005C602.711 477.426 605.016 477.939 606.92 478.965C608.824 479.98 610.276 481.392 611.274 483.203C612.284 485.002 612.79 487.077 612.79 489.43C612.79 491.782 612.279 493.858 611.257 495.657C610.235 497.456 608.755 498.857 606.816 499.86C604.888 500.864 602.554 501.365 599.814 501.365H590.844V495.363H598.595C600.046 495.363 601.242 495.115 602.183 494.619C603.135 494.112 603.843 493.414 604.307 492.526C604.784 491.627 605.022 490.595 605.022 489.43C605.022 488.254 604.784 487.227 604.307 486.351C603.843 485.463 603.135 484.777 602.183 484.293C601.23 483.797 600.023 483.549 598.56 483.549H593.474V512.851H585.933Z" fill="#21201C"/>
<path d="M625.045 512.851V477.426H649.08V483.601H632.587V492.042H647.844V498.217H632.587V506.675H649.15V512.851H625.045Z" fill="#21201C"/>
<path d="M668.581 512.851H660.5L672.814 477.426H682.532L694.829 512.851H686.747L677.812 485.521H677.534L668.581 512.851ZM668.076 498.926H687.165V504.773H668.076V498.926Z" fill="#21201C"/>
<path d="M700.762 483.601V477.426H730.057V483.601H719.137V512.851H711.682V483.601H700.762Z" fill="#21201C"/>
<path d="M742.238 477.426H749.763V499.705H750.059L765.473 477.426H772.074V512.851H764.532V490.554H764.271L748.77 512.851H742.238V477.426Z" fill="#21201C"/>
<path d="M785.662 512.851V477.426H799.944C802.568 477.426 804.756 477.812 806.51 478.584C808.263 479.357 809.581 480.43 810.463 481.802C811.346 483.163 811.787 484.731 811.787 486.507C811.787 487.89 811.508 489.107 810.951 490.156C810.394 491.194 809.627 492.048 808.652 492.716C807.688 493.374 806.585 493.841 805.343 494.118V494.463C806.701 494.521 807.973 494.902 809.157 495.605C810.353 496.309 811.323 497.294 812.066 498.563C812.809 499.82 813.18 501.319 813.18 503.06C813.18 504.94 812.71 506.618 811.77 508.094C810.841 509.558 809.465 510.717 807.642 511.571C805.819 512.424 803.572 512.851 800.901 512.851H785.662ZM793.203 506.727H799.351C801.453 506.727 802.986 506.33 803.949 505.534C804.913 504.727 805.395 503.654 805.395 502.317C805.395 501.336 805.157 500.471 804.681 499.722C804.205 498.972 803.526 498.384 802.643 497.958C801.772 497.531 800.733 497.318 799.525 497.318H793.203V506.727ZM793.203 492.249H798.794C799.827 492.249 800.745 492.071 801.546 491.713C802.359 491.344 802.997 490.825 803.462 490.156C803.938 489.488 804.176 488.686 804.176 487.752C804.176 486.472 803.717 485.44 802.8 484.656C801.894 483.872 800.605 483.48 798.933 483.48H793.203V492.249Z" fill="#21201C"/>
<path d="M565.43 565.365L553.97 550.264H551.392V565.365H543.851V529.94H551.392V544.089H552.907L564.751 529.94H574.139L560.223 546.373L574.783 565.365H565.43Z" fill="#21201C"/>
<path d="M585.214 565.365H577.133L589.447 529.94H599.165L611.462 565.365H603.38L594.445 538.035H594.167L585.214 565.365ZM584.709 551.441H603.798V557.287H584.709V551.441Z" fill="#21201C"/>
<path d="M617.691 529.94H625.024V541.356C625.024 542.717 625.262 543.813 625.738 544.643C626.214 545.462 626.951 546.055 627.95 546.424C628.96 546.782 630.254 546.961 631.834 546.961C632.391 546.961 633.047 546.943 633.802 546.909C634.556 546.863 635.334 546.799 636.136 546.719C636.948 546.638 637.715 546.54 638.435 546.424C639.155 546.309 639.753 546.177 640.229 546.027V551.942C639.741 552.104 639.131 552.248 638.4 552.375C637.68 552.49 636.919 552.594 636.118 552.686C635.317 552.767 634.539 552.83 633.784 552.876C633.03 552.923 632.379 552.946 631.834 552.946C628.966 552.946 626.469 552.542 624.344 551.735C622.219 550.916 620.576 549.653 619.415 547.947C618.266 546.24 617.691 544.043 617.691 541.356V529.94ZM638.922 529.94H646.29V565.365H638.922V529.94Z" fill="#21201C"/>
<path d="M654.239 565.365V529.94H678.274V536.115H661.78V544.556H677.038V550.732H661.78V559.19H678.344V565.365H654.239Z" fill="#21201C"/>
<path d="M716.233 542.342H708.604C708.465 541.362 708.181 540.491 707.751 539.73C707.321 538.958 706.77 538.3 706.096 537.758C705.423 537.216 704.645 536.801 703.763 536.513C702.892 536.225 701.945 536.081 700.924 536.081C699.077 536.081 697.469 536.536 696.099 537.447C694.729 538.347 693.666 539.661 692.912 541.391C692.157 543.109 691.78 545.196 691.78 547.653C691.78 550.178 692.157 552.3 692.912 554.018C693.678 555.736 694.746 557.034 696.116 557.91C697.487 558.786 699.072 559.225 700.871 559.225C701.881 559.225 702.816 559.092 703.675 558.827C704.546 558.561 705.318 558.175 705.992 557.668C706.665 557.149 707.223 556.52 707.664 555.782C708.117 555.044 708.43 554.203 708.604 553.257L716.233 553.292C716.036 554.917 715.542 556.486 714.753 557.996C713.975 559.496 712.924 560.839 711.6 562.027C710.288 563.203 708.721 564.137 706.898 564.829C705.086 565.509 703.037 565.849 700.749 565.849C697.568 565.849 694.723 565.134 692.215 563.705C689.719 562.275 687.745 560.205 686.293 557.495C684.853 554.785 684.134 551.504 684.134 547.653C684.134 543.789 684.865 540.503 686.328 537.793C687.791 535.083 689.777 533.019 692.285 531.601C694.793 530.171 697.614 529.456 700.749 529.456C702.816 529.456 704.732 529.744 706.497 530.321C708.273 530.897 709.847 531.739 711.217 532.846C712.587 533.941 713.702 535.285 714.561 536.876C715.432 538.468 715.989 540.29 716.233 542.342Z" fill="#21201C"/>
<path d="M720.773 536.115V529.94H750.068V536.115H739.148V565.365H731.693V536.115H720.773Z" fill="#21201C"/>
<path d="M755.383 565.365V529.94H769.665C772.289 529.94 774.478 530.326 776.231 531.099C777.985 531.872 779.303 532.944 780.185 534.316C781.067 535.677 781.509 537.245 781.509 539.021C781.509 540.405 781.23 541.622 780.673 542.671C780.115 543.709 779.349 544.562 778.374 545.231C777.41 545.888 776.307 546.355 775.064 546.632V546.978C776.423 547.036 777.694 547.416 778.879 548.12C780.075 548.823 781.044 549.809 781.787 551.077C782.531 552.334 782.902 553.834 782.902 555.575C782.902 557.454 782.432 559.132 781.491 560.608C780.562 562.073 779.186 563.232 777.363 564.085C775.54 564.938 773.294 565.365 770.623 565.365H755.383ZM762.925 559.242H769.073C771.175 559.242 772.707 558.844 773.671 558.048C774.635 557.241 775.117 556.169 775.117 554.831C775.117 553.851 774.879 552.986 774.403 552.236C773.926 551.487 773.247 550.899 772.365 550.472C771.494 550.045 770.455 549.832 769.247 549.832H762.925V559.242ZM762.925 544.764H768.516C769.549 544.764 770.466 544.585 771.268 544.228C772.08 543.859 772.719 543.34 773.183 542.671C773.659 542.002 773.897 541.201 773.897 540.267C773.897 538.987 773.439 537.954 772.522 537.17C771.616 536.386 770.327 535.994 768.655 535.994H762.925V544.764Z" fill="#21201C"/>
<path d="M820.588 547.653C820.588 551.516 819.851 554.802 818.376 557.512C816.913 560.222 814.916 562.292 812.385 563.722C809.865 565.14 807.032 565.849 803.885 565.849C800.715 565.849 797.87 565.134 795.351 563.705C792.831 562.275 790.84 560.205 789.377 557.495C787.914 554.785 787.182 551.504 787.182 547.653C787.182 543.789 787.914 540.503 789.377 537.793C790.84 535.083 792.831 533.019 795.351 531.601C797.87 530.171 800.715 529.456 803.885 529.456C807.032 529.456 809.865 530.171 812.385 531.601C814.916 533.019 816.913 535.083 818.376 537.793C819.851 540.503 820.588 543.789 820.588 547.653ZM812.942 547.653C812.942 545.15 812.565 543.04 811.81 541.322C811.067 539.604 810.016 538.3 808.657 537.413C807.299 536.525 805.708 536.081 803.885 536.081C802.062 536.081 800.471 536.525 799.113 537.413C797.754 538.3 796.698 539.604 795.943 541.322C795.2 543.04 794.828 545.15 794.828 547.653C794.828 550.155 795.2 552.265 795.943 553.983C796.698 555.702 797.754 557.005 799.113 557.893C800.471 558.781 802.062 559.225 803.885 559.225C805.708 559.225 807.299 558.781 808.657 557.893C810.016 557.005 811.067 555.702 811.81 553.983C812.565 552.265 812.942 550.155 812.942 547.653Z" fill="#21201C"/>
<path d="M565.43 616.358L553.97 601.257H551.392V616.358H543.851V580.933H551.392V595.082H552.907L564.751 580.933H574.139L560.223 597.366L574.783 616.358H565.43Z" fill="#21201C"/>
<path d="M612.286 598.646C612.286 602.509 611.548 605.795 610.074 608.505C608.611 611.215 606.613 613.285 604.082 614.715C601.562 616.133 598.729 616.842 595.583 616.842C592.413 616.842 589.568 616.127 587.048 614.698C584.529 613.268 582.537 611.198 581.074 608.488C579.611 605.778 578.88 602.497 578.88 598.646C578.88 594.782 579.611 591.496 581.074 588.786C582.537 586.076 584.529 584.012 587.048 582.594C589.568 581.164 592.413 580.449 595.583 580.449C598.729 580.449 601.562 581.164 604.082 582.594C606.613 584.012 608.611 586.076 610.074 588.786C611.548 591.496 612.286 594.782 612.286 598.646ZM604.639 598.646C604.639 596.143 604.262 594.033 603.507 592.315C602.764 590.596 601.713 589.293 600.355 588.405C598.996 587.518 597.406 587.074 595.583 587.074C593.76 587.074 592.169 587.518 590.81 588.405C589.452 589.293 588.395 590.596 587.64 592.315C586.897 594.033 586.526 596.143 586.526 598.646C586.526 601.148 586.897 603.258 587.64 604.976C588.395 606.695 589.452 607.998 590.81 608.886C592.169 609.774 593.76 610.218 595.583 610.218C597.406 610.218 598.996 609.774 600.355 608.886C601.713 607.998 602.764 606.695 603.507 604.976C604.262 603.258 604.639 601.148 604.639 598.646Z" fill="#21201C"/>
<path d="M620.815 580.933H630.115L639.939 604.734H640.357L650.18 580.933H659.48V616.358H652.165V593.301H651.869L642.638 616.185H637.657L628.426 593.214H628.13V616.358H620.815V580.933Z" fill="#21201C"/>
<path d="M682.744 584.738H690.721C693.578 584.738 696.109 585.338 698.315 586.537C700.533 587.737 702.269 589.426 703.523 591.606C704.789 593.773 705.421 596.322 705.421 599.251C705.421 602.088 704.789 604.561 703.523 606.672C702.269 608.782 700.533 610.425 698.315 611.601C696.109 612.766 693.578 613.348 690.721 613.348H682.744C679.876 613.348 677.334 612.772 675.116 611.619C672.898 610.454 671.156 608.816 669.891 606.706C668.637 604.596 668.01 602.105 668.01 599.234C668.01 596.305 668.643 593.756 669.908 591.588C671.185 589.409 672.933 587.725 675.151 586.537C677.368 585.338 679.9 584.738 682.744 584.738ZM682.744 591C681.212 591 679.859 591.306 678.686 591.917C677.525 592.517 676.619 593.428 675.969 594.65C675.319 595.872 674.994 597.4 674.994 599.234C674.994 600.986 675.325 602.445 675.987 603.61C676.66 604.775 677.577 605.645 678.739 606.222C679.9 606.798 681.235 607.087 682.744 607.087H690.774C692.295 607.087 693.624 606.793 694.762 606.205C695.912 605.616 696.8 604.74 697.427 603.575C698.066 602.411 698.385 600.969 698.385 599.251C698.385 597.417 698.066 595.89 697.427 594.667C696.8 593.445 695.912 592.528 694.762 591.917C693.624 591.306 692.295 591 690.774 591H682.744ZM690.303 580.31V617.811H683.145V580.31H690.303Z" fill="#21201C"/>
<path d="M746.699 598.646C746.699 602.509 745.962 605.795 744.487 608.505C743.024 611.215 741.027 613.285 738.495 614.715C735.976 616.133 733.143 616.842 729.996 616.842C726.826 616.842 723.981 616.127 721.462 614.698C718.942 613.268 716.951 611.198 715.488 608.488C714.025 605.778 713.293 602.497 713.293 598.646C713.293 594.782 714.025 591.496 715.488 588.786C716.951 586.076 718.942 584.012 721.462 582.594C723.981 581.164 726.826 580.449 729.996 580.449C733.143 580.449 735.976 581.164 738.495 582.594C741.027 584.012 743.024 586.076 744.487 588.786C745.962 591.496 746.699 594.782 746.699 598.646ZM739.053 598.646C739.053 596.143 738.675 594.033 737.921 592.315C737.178 590.596 736.127 589.293 734.768 588.405C733.41 587.518 731.819 587.074 729.996 587.074C728.173 587.074 726.582 587.518 725.224 588.405C723.865 589.293 722.809 590.596 722.054 592.315C721.311 594.033 720.939 596.143 720.939 598.646C720.939 601.148 721.311 603.258 722.054 604.976C722.809 606.695 723.865 607.998 725.224 608.886C726.582 609.774 728.173 610.218 729.996 610.218C731.819 610.218 733.41 609.774 734.768 608.886C736.127 607.998 737.178 606.695 737.921 604.976C738.675 603.258 739.053 601.148 739.053 598.646Z" fill="#21201C"/>
<path d="M755.228 616.358V580.933H769.301C772.006 580.933 774.311 581.446 776.216 582.472C778.12 583.487 779.571 584.9 780.57 586.71C781.58 588.509 782.085 590.585 782.085 592.937C782.085 595.29 781.574 597.366 780.552 599.164C779.531 600.963 778.05 602.365 776.111 603.368C774.184 604.371 771.85 604.873 769.109 604.873H760.14V598.87H767.89C769.342 598.87 770.538 598.622 771.478 598.127C772.43 597.619 773.139 596.922 773.603 596.034C774.079 595.134 774.317 594.102 774.317 592.937C774.317 591.761 774.079 590.735 773.603 589.858C773.139 588.971 772.43 588.284 771.478 587.8C770.526 587.304 769.318 587.056 767.855 587.056H762.77V616.358H755.228Z" fill="#21201C"/>
<path d="M788.568 587.108V580.933H817.863V587.108H806.943V616.358H799.488V587.108H788.568Z" fill="#21201C"/>
<path d="M167.065 709.96H162.774C162.696 709.409 162.536 708.919 162.294 708.491C162.053 708.056 161.742 707.687 161.364 707.382C160.985 707.077 160.547 706.843 160.051 706.681C159.561 706.519 159.029 706.438 158.454 706.438C157.415 706.438 156.511 706.694 155.74 707.207C154.969 707.713 154.372 708.452 153.947 709.425C153.523 710.391 153.31 711.566 153.31 712.947C153.31 714.368 153.523 715.561 153.947 716.528C154.378 717.494 154.979 718.224 155.75 718.717C156.521 719.21 157.412 719.456 158.424 719.456C158.993 719.456 159.518 719.382 160.002 719.233C160.492 719.083 160.926 718.866 161.305 718.581C161.684 718.289 161.997 717.935 162.245 717.52C162.5 717.105 162.676 716.632 162.774 716.1L167.065 716.119C166.954 717.034 166.677 717.916 166.233 718.766C165.795 719.609 165.204 720.365 164.459 721.033C163.721 721.694 162.84 722.22 161.814 722.609C160.795 722.992 159.643 723.183 158.356 723.183C156.566 723.183 154.966 722.781 153.555 721.976C152.151 721.172 151.041 720.008 150.224 718.483C149.414 716.959 149.01 715.114 149.01 712.947C149.01 710.774 149.421 708.926 150.244 707.401C151.067 705.877 152.184 704.716 153.595 703.918C155.005 703.114 156.592 702.711 158.356 702.711C159.518 702.711 160.596 702.874 161.589 703.198C162.588 703.522 163.473 703.996 164.244 704.618C165.015 705.235 165.642 705.99 166.125 706.886C166.615 707.781 166.928 708.806 167.065 709.96Z" fill="white"/>
<path d="M170.999 706.457V702.984H187.477V706.457H181.334V722.91H177.141V706.457H170.999Z" fill="white"/>
<path d="M191.846 722.91V702.984H199.762C201.284 702.984 202.581 703.273 203.652 703.85C204.723 704.421 205.539 705.215 206.101 706.234C206.669 707.246 206.953 708.413 206.953 709.736C206.953 711.06 206.666 712.227 206.091 713.239C205.516 714.251 204.684 715.039 203.593 715.603C202.509 716.168 201.196 716.45 199.655 716.45H194.609V713.074H198.969C199.785 713.074 200.458 712.934 200.987 712.655C201.523 712.37 201.921 711.977 202.182 711.478C202.45 710.972 202.584 710.391 202.584 709.736C202.584 709.075 202.45 708.497 202.182 708.004C201.921 707.505 201.523 707.119 200.987 706.847C200.451 706.568 199.772 706.428 198.949 706.428H196.088V722.91H191.846Z" fill="white"/>
<path d="M229.802 712.947C229.802 715.12 229.387 716.969 228.558 718.493C227.735 720.017 226.612 721.182 225.188 721.986C223.77 722.784 222.177 723.183 220.407 723.183C218.624 723.183 217.024 722.781 215.606 721.976C214.189 721.172 213.069 720.008 212.246 718.483C211.423 716.959 211.011 715.114 211.011 712.947C211.011 710.774 211.423 708.926 212.246 707.401C213.069 705.877 214.189 704.716 215.606 703.918C217.024 703.114 218.624 702.711 220.407 702.711C222.177 702.711 223.77 703.114 225.188 703.918C226.612 704.716 227.735 705.877 228.558 707.401C229.387 708.926 229.802 710.774 229.802 712.947ZM225.501 712.947C225.501 711.54 225.289 710.353 224.864 709.386C224.446 708.42 223.855 707.687 223.091 707.187C222.327 706.688 221.432 706.438 220.407 706.438C219.381 706.438 218.487 706.688 217.722 707.187C216.958 707.687 216.364 708.42 215.939 709.386C215.521 710.353 215.312 711.54 215.312 712.947C215.312 714.355 215.521 715.542 215.939 716.508C216.364 717.475 216.958 718.208 217.722 718.707C218.487 719.207 219.381 719.456 220.407 719.456C221.432 719.456 222.327 719.207 223.091 718.707C223.855 718.208 224.446 717.475 224.864 716.508C225.289 715.542 225.501 714.355 225.501 712.947Z" fill="white"/>
<path d="M234.6 702.984H238.832V715.516H238.999L247.669 702.984H251.382V722.91H247.14V710.369H246.993L238.274 722.91H234.6V702.984Z" fill="white"/>
<path d="M255.778 706.457V702.984H272.257V706.457H266.114V722.91H261.921V706.457H255.778Z" fill="white"/>
<path d="M276.626 722.91V702.984H290.146V706.457H280.868V711.206H289.45V714.679H280.868V719.437H290.185V722.91H276.626Z" fill="white"/>
<path d="M294.086 722.91V719.525L294.655 719.476C295.386 719.417 295.977 719.142 296.428 718.649C296.878 718.149 297.215 717.355 297.437 716.265C297.665 715.169 297.812 713.696 297.878 711.848L298.211 702.984H311.829V722.91H307.704V706.36H302.149L301.836 713.297C301.731 715.529 301.463 717.352 301.032 718.766C300.608 720.18 299.929 721.224 298.995 721.899C298.067 722.573 296.797 722.91 295.184 722.91H294.086Z" fill="white"/>
<path d="M319.774 710.349H324.555C326.148 710.349 327.52 710.606 328.669 711.118C329.826 711.624 330.717 712.341 331.344 713.268C331.971 714.196 332.281 715.289 332.275 716.547C332.281 717.799 331.971 718.905 331.344 719.865C330.717 720.819 329.826 721.565 328.669 722.103C327.52 722.641 326.148 722.91 324.555 722.91H317.06V702.984H321.292V719.525H324.555C325.319 719.525 325.962 719.388 326.485 719.116C327.007 718.837 327.402 718.47 327.67 718.016C327.944 717.556 328.078 717.053 328.072 716.508C328.078 715.717 327.778 715.049 327.171 714.504C326.57 713.953 325.698 713.677 324.555 713.677H319.774V710.349Z" fill="white"/>
<path d="M337.308 722.91V702.984H341.55V711.206H350.161V702.984H354.394V722.91H350.161V714.679H341.55V722.91H337.308Z" fill="white"/>
<path d="M377.985 712.947C377.985 715.12 377.57 716.969 376.74 718.493C375.917 720.017 374.794 721.182 373.37 721.986C371.953 722.784 370.359 723.183 368.589 723.183C366.806 723.183 365.206 722.781 363.789 721.976C362.371 721.172 361.251 720.008 360.428 718.483C359.605 716.959 359.194 715.114 359.194 712.947C359.194 710.774 359.605 708.926 360.428 707.401C361.251 705.877 362.371 704.716 363.789 703.918C365.206 703.114 366.806 702.711 368.589 702.711C370.359 702.711 371.953 703.114 373.37 703.918C374.794 704.716 375.917 705.877 376.74 707.401C377.57 708.926 377.985 710.774 377.985 712.947ZM373.684 712.947C373.684 711.54 373.471 710.353 373.047 709.386C372.629 708.42 372.038 707.687 371.274 707.187C370.509 706.688 369.615 706.438 368.589 706.438C367.564 706.438 366.669 706.688 365.905 707.187C365.141 707.687 364.546 708.42 364.122 709.386C363.704 710.353 363.495 711.54 363.495 712.947C363.495 714.355 363.704 715.542 364.122 716.508C364.546 717.475 365.141 718.208 365.905 718.707C366.669 719.207 367.564 719.456 368.589 719.456C369.615 719.456 370.509 719.207 371.274 718.707C372.038 718.208 372.629 717.475 373.047 716.508C373.471 715.542 373.684 714.355 373.684 712.947Z" fill="white"/>
<path d="M392.08 711.303V714.592H382.929V711.303H392.08Z" fill="white"/>
<path d="M415.808 712.947C415.808 715.12 415.393 716.969 414.563 718.493C413.741 720.017 412.617 721.182 411.193 721.986C409.776 722.784 408.182 723.183 406.412 723.183C404.629 723.183 403.029 722.781 401.612 721.976C400.194 721.172 399.074 720.008 398.251 718.483C397.428 716.959 397.017 715.114 397.017 712.947C397.017 710.774 397.428 708.926 398.251 707.401C399.074 705.877 400.194 704.716 401.612 703.918C403.029 703.114 404.629 702.711 406.412 702.711C408.182 702.711 409.776 703.114 411.193 703.918C412.617 704.716 413.741 705.877 414.563 707.401C415.393 708.926 415.808 710.774 415.808 712.947ZM411.507 712.947C411.507 711.54 411.295 710.353 410.87 709.386C410.452 708.42 409.861 707.687 409.097 707.187C408.333 706.688 407.438 706.438 406.412 706.438C405.387 706.438 404.492 706.688 403.728 707.187C402.964 707.687 402.369 708.42 401.945 709.386C401.527 710.353 401.318 711.54 401.318 712.947C401.318 714.355 401.527 715.542 401.945 716.508C402.369 717.475 402.964 718.208 403.728 718.707C404.492 719.207 405.387 719.456 406.412 719.456C407.438 719.456 408.333 719.207 409.097 718.707C409.861 718.208 410.452 717.475 410.87 716.508C411.295 715.542 411.507 714.355 411.507 712.947Z" fill="white"/>
<path d="M418.925 706.457V702.984H435.404V706.457H429.261V722.91H425.068V706.457H418.925Z" fill="white"/>
<path d="M438.685 727.717V719.554H440.047C440.511 719.223 440.936 718.756 441.321 718.153C441.706 717.543 442.036 716.703 442.31 715.633C442.585 714.556 442.781 713.148 442.898 711.41L443.466 702.984H456.741V719.554H458.936V727.698H454.86V722.91H442.761V727.717H438.685ZM444.946 719.554H452.666V706.457H447.287L446.974 711.41C446.889 712.727 446.748 713.894 446.552 714.913C446.363 715.931 446.131 716.823 445.857 717.588C445.589 718.347 445.285 719.002 444.946 719.554Z" fill="white"/>
<path d="M463.17 722.91V702.984H476.69V706.457H467.412V711.206H475.995V714.679H467.412V719.437H476.729V722.91H463.17Z" fill="white"/>
<path d="M480.631 722.91V719.525L481.199 719.476C481.93 719.417 482.522 719.142 482.972 718.649C483.423 718.149 483.759 717.355 483.981 716.265C484.21 715.169 484.357 713.696 484.422 711.848L484.755 702.984H498.373V722.91H494.249V706.36H488.694L488.38 713.297C488.276 715.529 488.008 717.352 487.577 718.766C487.152 720.18 486.473 721.224 485.539 721.899C484.612 722.573 483.341 722.91 481.728 722.91H480.631Z" fill="white"/>
<path d="M521.964 712.947C521.964 715.12 521.549 716.969 520.72 718.493C519.897 720.017 518.773 721.182 517.35 721.986C515.932 722.784 514.339 723.183 512.569 723.183C510.786 723.183 509.185 722.781 507.768 721.976C506.351 721.172 505.231 720.008 504.408 718.483C503.585 716.959 503.173 715.114 503.173 712.947C503.173 710.774 503.585 708.926 504.408 707.401C505.231 705.877 506.351 704.716 507.768 703.918C509.185 703.114 510.786 702.711 512.569 702.711C514.339 702.711 515.932 703.114 517.35 703.918C518.773 704.716 519.897 705.877 520.72 707.401C521.549 708.926 521.964 710.774 521.964 712.947ZM517.663 712.947C517.663 711.54 517.451 710.353 517.026 709.386C516.608 708.42 516.017 707.687 515.253 707.187C514.489 706.688 513.594 706.438 512.569 706.438C511.543 706.438 510.648 706.688 509.884 707.187C509.12 707.687 508.526 708.42 508.101 709.386C507.683 710.353 507.474 711.54 507.474 712.947C507.474 714.355 507.683 715.542 508.101 716.508C508.526 717.475 509.12 718.208 509.884 718.707C510.648 719.207 511.543 719.456 512.569 719.456C513.594 719.456 514.489 719.207 515.253 718.707C516.017 718.208 516.608 717.475 517.026 716.508C517.451 715.542 517.663 714.355 517.663 712.947Z" fill="white"/>
<path d="M527.575 702.984H531.699V709.406C531.699 710.171 531.833 710.787 532.101 711.254C532.369 711.715 532.784 712.049 533.345 712.256C533.914 712.457 534.642 712.558 535.53 712.558C535.844 712.558 536.213 712.548 536.637 712.529C537.062 712.503 537.499 712.467 537.95 712.422C538.407 712.376 538.838 712.321 539.243 712.256C539.648 712.191 539.985 712.117 540.252 712.033V715.36C539.978 715.451 539.635 715.532 539.224 715.603C538.819 715.668 538.391 715.727 537.94 715.779C537.49 715.824 537.052 715.86 536.627 715.886C536.203 715.912 535.837 715.924 535.53 715.924C533.917 715.924 532.513 715.697 531.317 715.243C530.122 714.783 529.198 714.073 528.545 713.113C527.898 712.153 527.575 710.917 527.575 709.406V702.984ZM539.518 702.984H543.662V722.91H539.518V702.984Z" fill="white"/>
<path d="M549.513 722.91V702.984H553.755V711.206H562.366V702.984H566.599V722.91H562.366V714.679H553.755V722.91H549.513Z" fill="white"/>
<path d="M575.21 722.91H570.664L577.59 702.984H583.057L589.974 722.91H585.428L580.402 707.537H580.245L575.21 722.91ZM574.926 715.078H585.663V718.367H574.926V715.078Z" fill="white"/>
<path d="M609.445 722.91H605.213V706.428H602.352C601.536 706.428 600.856 706.548 600.314 706.788C599.779 707.022 599.377 707.366 599.109 707.82C598.841 708.274 598.708 708.831 598.708 709.493C598.708 710.148 598.841 710.696 599.109 711.137C599.377 711.579 599.779 711.909 600.314 712.13C600.85 712.35 601.523 712.461 602.333 712.461H606.937V715.847H601.647C600.112 715.847 598.799 715.594 597.708 715.088C596.618 714.582 595.785 713.855 595.21 712.908C594.635 711.955 594.348 710.816 594.348 709.493C594.348 708.176 594.629 707.031 595.19 706.058C595.759 705.079 596.578 704.323 597.65 703.791C598.727 703.253 600.024 702.984 601.539 702.984H609.445V722.91ZM598.619 713.842H603.195L598.316 722.91H593.633L598.619 713.842Z" fill="white"/>
<path d="M634.765 722.91L628.318 714.416H626.868V722.91H622.626V702.984H626.868V710.943H627.721L634.383 702.984H639.663L631.836 712.227L640.026 722.91H634.765Z" fill="white"/>
<path d="M661.121 712.947C661.121 715.12 660.706 716.969 659.877 718.493C659.054 720.017 657.93 721.182 656.507 721.986C655.089 722.784 653.496 723.183 651.726 723.183C649.943 723.183 648.342 722.781 646.925 721.976C645.508 721.172 644.388 720.008 643.565 718.483C642.742 716.959 642.33 715.114 642.33 712.947C642.33 710.774 642.742 708.926 643.565 707.401C644.388 705.877 645.508 704.716 646.925 703.918C648.342 703.114 649.943 702.711 651.726 702.711C653.496 702.711 655.089 703.114 656.507 703.918C657.93 704.716 659.054 705.877 659.877 707.401C660.706 708.926 661.121 710.774 661.121 712.947ZM656.82 712.947C656.82 711.54 656.608 710.353 656.183 709.386C655.765 708.42 655.174 707.687 654.41 707.187C653.646 706.688 652.751 706.438 651.726 706.438C650.7 706.438 649.805 706.688 649.041 707.187C648.277 707.687 647.683 708.42 647.258 709.386C646.84 710.353 646.631 711.54 646.631 712.947C646.631 714.355 646.84 715.542 647.258 716.508C647.683 717.475 648.277 718.208 649.041 718.707C649.805 719.207 650.7 719.456 651.726 719.456C652.751 719.456 653.646 719.207 654.41 718.707C655.174 718.208 655.765 717.475 656.183 716.508C656.608 715.542 656.82 714.355 656.82 712.947Z" fill="white"/>
<path d="M665.919 702.984H671.15L676.676 716.372H676.911L682.437 702.984H687.668V722.91H683.553V709.941H683.387L678.194 722.813H675.392L670.2 709.892H670.033V722.91H665.919V702.984Z" fill="white"/>
<path d="M709.875 702.984V722.91H705.682V706.409H697.57V722.91H693.377V702.984H709.875Z" fill="white"/>
<path d="M719.028 722.91H714.482L721.408 702.984H726.875L733.792 722.91H729.246L724.22 707.537H724.063L719.028 722.91ZM718.744 715.078H729.481V718.367H718.744V715.078Z" fill="white"/>
<path d="M737.862 722.91V702.984H742.104V711.206H750.716V702.984H754.948V722.91H750.716V714.679H742.104V722.91H737.862Z" fill="white"/>
<path d="M760.101 702.984H764.333V715.516H764.5L773.17 702.984H776.883V722.91H772.641V710.369H772.494L763.775 722.91H760.101V702.984Z" fill="white"/>
<path d="M797.444 722.91H793.212V706.428H790.351C789.535 706.428 788.856 706.548 788.314 706.788C787.778 707.022 787.376 707.366 787.109 707.82C786.841 708.274 786.707 708.831 786.707 709.493C786.707 710.148 786.841 710.696 787.109 711.137C787.376 711.579 787.778 711.909 788.314 712.13C788.849 712.35 789.522 712.461 790.332 712.461H794.936V715.847H789.646C788.111 715.847 786.798 715.594 785.708 715.088C784.617 714.582 783.784 713.855 783.209 712.908C782.635 711.955 782.347 710.816 782.347 709.493C782.347 708.176 782.628 707.031 783.19 706.058C783.758 705.079 784.578 704.323 785.649 703.791C786.727 703.253 788.023 702.984 789.538 702.984H797.444V722.91ZM786.619 713.842H791.194L786.315 722.91H781.632L786.619 713.842Z" fill="white"/>
</svg>
