<svg width="14" height="18" viewBox="0 0 14 18" fill="none" xmlns="http://www.w3.org/2000/svg">
<path d="M12.6262 9.95849C12.8986 9.60856 13.1208 9.0939 13.2739 8.50708C13.4256 7.92583 13.5 7.30997 13.5 6.78516C13.5 3.32854 10.6047 0.5 7.00001 0.5C3.39536 0.5 0.5 3.32854 0.5 6.78516C0.5 7.9884 0.745907 9.15186 1.37382 9.95849L7.00001 17.186L12.6262 9.95849ZM12.6262 9.95849L13.0207 10.2656M10.4458 6.78514C10.4458 4.9177 8.88801 3.4298 7.00001 3.4298C5.112 3.4298 3.55426 4.9177 3.55426 6.78516C3.55426 8.65262 5.11201 10.1405 7.00001 10.1405C8.88801 10.1405 10.4458 8.65262 10.4458 6.78514Z" stroke="#2C2A25"/>
</svg>
