<svg width="30" height="30" viewBox="0 0 30 30" fill="none" xmlns="http://www.w3.org/2000/svg">
<path d="M27.6822 3.931C27.2322 3.5494 26.5254 3.4948 25.7946 3.7882H25.7934C25.0248 4.0966 4.03685 13.099 3.18245 13.4668C3.02705 13.5208 1.66985 14.0272 1.80965 15.1552C1.93445 16.1722 3.02525 16.5934 3.15845 16.642L8.49425 18.469C8.84825 19.6474 10.1532 23.995 10.4418 24.9238C10.6218 25.5028 10.9152 26.2636 11.4294 26.4202C11.8806 26.5942 12.3294 26.4352 12.6198 26.2072L15.882 23.1814L21.1482 27.2884L21.2736 27.3634C21.6312 27.5218 21.9738 27.601 22.3008 27.601C22.5534 27.601 22.7958 27.5536 23.0274 27.4588C23.8164 27.1348 24.132 26.383 24.165 26.2978L28.0986 5.8516C28.3386 4.7596 28.005 4.204 27.6822 3.931ZM13.2 19.1998L11.4 23.9998L9.60005 17.9998L23.4 7.7998L13.2 19.1998Z" fill="white"/>
</svg>
