<svg width="30" height="30" viewBox="0 0 30 30" fill="none" xmlns="http://www.w3.org/2000/svg">
<path fill-rule="evenodd" clip-rule="evenodd" d="M28.3643 5.80668C28.8302 6.28805 29.1658 6.88712 29.3379 7.54425C30.3287 11.6657 30.0998 18.1749 29.3571 22.4554C29.1851 23.1125 28.8494 23.7116 28.3836 24.1929C27.9177 24.6743 27.3379 25.0212 26.702 25.199C24.3739 25.8551 15.0041 25.8551 15.0041 25.8551C15.0041 25.8551 5.63413 25.8551 3.30608 25.199C2.67014 25.0212 2.09039 24.6743 1.62454 24.1929C1.1587 23.7116 0.823023 23.1125 0.650941 22.4554C-0.345695 18.3518 -0.0724851 11.8386 0.631702 7.56414C0.803782 6.90701 1.13946 6.30793 1.6053 5.82656C2.07114 5.34519 2.6509 4.99832 3.28683 4.82051C5.61489 4.16441 14.9848 4.14453 14.9848 4.14453C14.9848 4.14453 24.3547 4.14453 26.6828 4.80062C27.3187 4.97844 27.8984 5.32531 28.3643 5.80668ZM19.7756 14.9998L12.0026 19.6521V10.3475L19.7756 14.9998Z" fill="white"/>
</svg>
